<?xml version="1.0" encoding="utf-8"?>
<!-- Generator: Adobe Illustrator 16.0.0, SVG Export Plug-In . SVG Version: 6.00 Build 0)  -->
<!DOCTYPE svg PUBLIC "-//W3C//DTD SVG 1.1//EN" "http://www.w3.org/Graphics/SVG/1.1/DTD/svg11.dtd">
<svg version="1.1" id="Layer_1" xmlns="http://www.w3.org/2000/svg" xmlns:xlink="http://www.w3.org/1999/xlink" x="0px" y="0px"
	 width="268px" height="265px" viewBox="0 0 268 265" enable-background="new 0 0 268 265" xml:space="preserve">
<path fill="#FFFFFF" d="M171.26,59.43c-10.1-5.15-21.41-8.28-33.39-8.83c-1.28-0.07-2.57-0.1-3.87-0.1c-45.29,0-82,36.71-82,82
	s36.71,82,82,82c32.23,0,60.12-18.59,73.51-45.64c4.83-9.74,7.78-20.57,8.37-32.03c0.08-1.43,0.12-2.88,0.12-4.33
	C216,100.63,197.82,73,171.26,59.43z M134,188.54c-32,0-57.93-25.09-57.93-56.04c0-24.62,16.41-45.53,39.229-53.06
	c-3.42,8.17-5.3,17.14-5.3,26.56c0,35.81,27.27,65.24,62.17,68.66C161.98,183.3,148.62,188.54,134,188.54z"/>
</svg>
